<svg width="46" height="26" viewBox="0 0 46 26" fill="none" xmlns="http://www.w3.org/2000/svg">
<path fill-rule="evenodd" clip-rule="evenodd" d="M34.8712 3.32794H46C46 5.8754 44.2524 8.31501 40.4519 8.31511L44.375 9.97747C43.3444 12.5221 40.4928 13.7306 38.0053 12.6765L36.7385 12.1397L39.5 14.9646C37.5963 16.9121 34.0579 16.8746 32.1542 14.927C31.5966 15.9368 30.55 16.6268 29.3352 16.6268C28.1375 16.6268 27.063 15.9259 26.4978 14.9376C26.1489 15.6617 25.58 16.2467 24.875 16.6086V24.9355C23.7287 25.3121 22.6279 25.6727 21.625 26V6.18833C20.6575 5.61233 20 4.55226 20 3.32472C20 1.48854 21.455 0 23.25 0C25.045 0 26.5 1.48854 26.5 3.32472C26.5 4.55237 25.8425 5.61243 24.875 6.18833V10.8053C26.4957 10.8053 27.3909 9.26658 28.2587 7.77476C28.6963 7.02248 29.127 6.28214 29.6403 5.75706C31.0497 4.31517 32.688 3.32794 34.8712 3.32794ZM11.4129 3C13.6518 3 15.3319 3.96505 16.7772 5.37453C17.3033 5.88749 17.7457 6.60896 18.1952 7.34206C18.7343 8.2213 19.2837 9.11727 20 9.69033V12.9596C20 14.5475 18.7554 15.9817 17.127 15.9998L17.0901 16C15.8443 16 14.771 15.3255 14.1992 14.3383C12.2469 16.2422 8.61818 16.2789 6.6659 14.3751L9.49787 11.6136L8.19875 12.1384C5.64779 13.1686 2.72323 11.9875 1.66648 9.5L5.68966 7.875C1.79219 7.875 0 5.49011 0 3H11.4129Z" fill="url(#paint0_linear)"/>
<defs>
<linearGradient id="paint0_linear" x1="-36.3395" y1="16.4905" x2="20.2749" y2="84.8963" gradientUnits="userSpaceOnUse">
<stop stop-color="#1ABEC5"/>
<stop offset="1" stop-color="#007696"/>
</linearGradient>
</defs>
</svg>
